<?xml version="1.0"?><svg width="1600" height="1200" xmlns="http://www.w3.org/2000/svg">
 <title>question mark</title>
 <defs>
  <linearGradient y2="0" x2="1" spreadMethod="pad" id="svg_2">
   <stop offset="0" stop-color="#ff0000"/>
   <stop offset="1" stop-opacity="0.996094" stop-color="#ffffff"/>
  </linearGradient>
  <linearGradient id="svg_4">
   <stop offset="0" stop-color="#ff0000"/>
   <stop offset="1" stop-opacity="0.996094" stop-color="#ffffff"/>
  </linearGradient>
  <radialGradient spreadMethod="pad" id="svg_5">
   <stop offset="0" stop-color="#ff0000"/>
   <stop offset="1" stop-opacity="0.996094" stop-color="#ffffff"/>
  </radialGradient>
  <radialGradient r="0.5" cy="0.5" cx="0.5" spreadMethod="pad" id="svg_6">
   <stop offset="0" stop-opacity="0.996094" stop-color="#ffffff"/>
   <stop offset="1" stop-opacity="0.996094" stop-color="#ff0000"/>
  </radialGradient>
 </defs>
 <metadata id="metadata7">image/svg+xmlhelp question mark lemon green yellow icon</metadata>
 <g>
  <path fill="#ffff00" stroke="#bf0000" stroke-width="42" stroke-miterlimit="4" d="m248.499985,344.587585c0,-47.587219 17.792343,-95.803299 53.37706,-144.644791c35.588745,-48.841385 87.509216,-89.291039 155.765442,-121.35244c68.256317,-32.057854 147.88858,-48.086826 238.89682,-48.090355c84.587891,0.003529 159.260437,13.401703 224.017639,40.201683c64.753052,26.799881 114.781677,63.242302 150.077454,109.327278c35.291748,46.088379 52.937622,96.180634 52.941528,150.283508c-0.003906,42.577362 -10.065796,79.900085 -30.193604,111.957977c-20.127686,32.061371 -44.043335,59.73819 -71.755188,83.030579c-27.711792,23.292236 -77.443359,62.49115 -149.198669,117.593262c-19.834839,15.529236 -35.735229,29.179077 -47.693054,40.952698c-11.957947,11.770203 -20.85614,22.541138 -26.690491,32.309448c-5.834595,9.768311 -10.354919,19.53656 -13.560974,29.304871c-3.210205,9.768311 -8.02356,26.92572 -14.439758,51.472229c-11.083191,52.097473 -45.797058,78.146362 -104.133911,78.146362c-30.33606,0 -55.858948,-8.517761 -76.568481,-25.549255c-20.709656,-17.031616 -35.13324,-42.329224 -35.13324,-75.892883c0,-42.077759 11.652832,-78.520142 26.82074,-109.327393c15.164001,-30.807129 35.29187,-57.858521 60.379395,-81.150879c25.083374,-23.295715 58.918518,-50.972595 101.509521,-83.030426c37.33429,-28.054108 64.317749,-49.215271 80.942322,-63.493927c16.624756,-14.275116 30.629089,-30.181671 42.005127,-47.712921c11.376099,-17.53476 17.064026,-36.568237 17.064026,-57.107483c0,-40.075897 -17.356934,-73.887482 -52.066956,-101.438614c-34.713867,-27.55101 -79.485657,-41.326508 -134.323425,-41.330032c-64.175232,0.003525 -111.429077,13.904724 -141.765076,41.703827c-30.336121,27.802643 -56.005432,68.755432 -77.003906,122.854797c-19.834839,56.607849 -57.466095,84.910126 -112.885712,84.910126c-32.671478,0 -60.236816,-9.894073 -82.695953,-29.682159c-22.459076,-19.784637 -33.688675,-41.200836 -33.688675,-64.245087zm427.036819,823.537415c-35.588867,0 -66.653137,-9.894043 -93.197388,-29.678711c-26.544006,-19.788086 -39.815979,-47.464966 -39.815979,-83.030396c0,-31.558411 12.83667,-58.110168 38.505859,-79.648743c25.665222,-21.541809 57.169189,-32.312805 94.507507,-32.312805c36.752319,0 67.670227,10.770996 92.757813,32.312805c25.083496,21.538574 37.627075,48.090332 37.627075,79.648743c0,35.065796 -13.125488,62.616821 -39.376648,82.653198c-26.255188,20.036133 -56.591248,30.055908 -91.00824,30.055908l0,0z" id="path2821"/>
  <title>Layer 1</title>
 </g>
</svg>